{"title":"Earth Girl Arjuna [zx] - All 13 episodes (English/Japanesse)","uid":10411512,"size":3187944570,"categoryP":"video","categoryS":"tv_shows","magnet":"?xt=urn:btih:9f4bc2aa0238044236c2cfd5e73df5183f3adc29&amp;dn=Earth+Girl+Arjuna+%5Bzx%5D+-+All+13+episodes+%28English%2FJapanesse%29&amp;tr=udp%3A%2F%2Ftracker.openbittorrent.com%3A80&amp;tr=udp%3A%2F%2Fopen.demonii.com%3A1337&amp;tr=udp%3A%2F%2Ftracker.coppersurfer.tk%3A6969&amp;tr=udp%3A%2F%2Fexodus.desync.com%3A6969","seeders":2,"leechers":0,"uploader":"matbonucci","files":13,"time":1403542174,"description":"Format                                   : OGG\nOverall bit rate mode                    : Variable\nOverall bit rate                         : 1 108 Kbps\nPerformer                                : Zhentarim DivX @ Zhentarim.cjb.net\nDescription                              : Ripped by Danners\n\nVideo\nID                                       : 0 (0x0)\nFormat                                   : MPEG-4 Visual\nFormat settings, BVOP                    : 1\nFormat settings, QPel                    : No\nFormat settings, GMC                     : No warppoints\nFormat settings, Matrix                  : Default (H.263)\nMuxing mode                              : Packed bitstream\nCodec ID                                 : DX50\nCodec ID/Hint                            : DivX 5\nDuration                                 : 30mn 54s\nBit rate                                 : 737 Kbps\nWidth                                    : 640 pixels\nHeight                                   : 368 pixels\nDisplay aspect ratio                     : 1.739\nFrame rate                               : 23.976 fps\nColor space                              : YUV\nChroma subsampling                       : 4:2:0\nBit depth                                : 8 bits\nScan type                                : Progressive\nCompression mode                         : Lossy\nBits/(Pixel*Frame)                       : 0.131\nStream size                              : 163 MiB (67%)\nWriting library                          : DivX 5.0.5 (UTC 2003-04-24)\n\nAudio #1\nID                                       : 1 (0x1)\nFormat                                   : Vorbis\nFormat settings, Floor                   : 1\nDuration                                 : 30mn 55s\nBit rate mode                            : Variable\nBit rate                                 : 104 Kbps\nChannel(s)                               : 2 channels\nSampling rate                            : 48.0 KHz\nCompression mode                         : Lossy\nStream size                              : 23.0 MiB (9%)\nWriting library                          : libVorbis 1.0 (UTC 2002-07-17)\nLanguage                                 : English\n\nAudio #2\nID                                       : 2 (0x2)\nFormat                                   : Vorbis\nFormat settings, Floor                   : 1\nDuration                                 : 30mn 55s\nBit rate mode                            : Variable\nBit rate                                 : 104 Kbps\nChannel(s)                               : 2 channels\nSampling rate                            : 48.0 KHz\nCompression mode                         : Lossy\nStream size                              : 23.0 MiB (9%)\nWriting library                          : libVorbis 1.0 (UTC 2002-07-17)\nLanguage                                 : Japanese\n\nAudio #3\nID                                       : 3 (0x3)\nFormat                                   : Vorbis\nFormat settings, Floor                   : 1\nDuration                                 : 30mn 54s\nBit rate mode                            : Variable\nBit rate                                 : 104 Kbps\nChannel(s)                               : 2 channels\nSampling rate                            : 48.0 KHz\nCompression mode                         : Lossy\nStream size                              : 23.0 MiB (9%)\nWriting library                          : libVorbis 1.0 (UTC 2002-07-17)\nLanguage                                 : Isolated Score\n\nText\nID                                       : 4 (0x4)\nFormat                                   : Subrip\nLanguage                                 : English\n\nTorrent from http://bakabt.me/142107-chikyuu-shoujo-arjuna-earth-girl-arjuna-zx.html\n","torrent":{"xt":"urn:btih:9f4bc2aa0238044236c2cfd5e73df5183f3adc29","amp;dn":"Earth+Girl+Arjuna+%5Bzx%5D+-+All+13+episodes+%28English%2FJapanesse%29","amp;tr":["udp%3A%2F%2Ftracker.openbittorrent.com%3A80","udp%3A%2F%2Fopen.demonii.com%3A1337","udp%3A%2F%2Ftracker.coppersurfer.tk%3A6969","udp%3A%2F%2Fexodus.desync.com%3A6969"],"infoHash":"9f4bc2aa0238044236c2cfd5e73df5183f3adc29","infoHashBuffer":{"type":"Buffer","data":[159,75,194,170,2,56,4,66,54,194,207,213,231,61,245,24,63,58,220,41]},"announce":[],"urlList":[]}}